<svg width="175" height="213" viewBox="0 0 175 213" fill="none" xmlns="http://www.w3.org/2000/svg">
<path d="M142.709 114.161L142.348 114.39C142.282 114.448 140.542 115.567 139.622 116.198L135.484 119.097L140.739 119.814C141.067 119.871 141.56 119.9 142.282 119.958C151.281 120.646 156.634 122.024 158.112 124.061C160.706 127.591 160.542 131.552 157.619 134.881C154.302 138.669 150.066 141.94 145.238 145.499C143.202 147.02 140.772 148.282 138.21 149.66C136.962 150.32 135.648 151.009 134.335 151.784L126.88 156.002L135.747 155.514C147.406 154.883 163.498 147.307 170.23 139.3C174.369 134.364 175.518 128.337 173.252 123.143C171.117 118.178 166.224 114.648 159.853 113.414L159.623 113.386C157.619 113.185 155.583 113.07 153.514 113.07C147.438 113.07 143.268 114.017 143.103 114.046L142.709 114.161Z" fill="url(#paint0_linear_2_331)"/>
<path d="M78.2741 111.578C80.3432 113.271 82.4779 115.05 84.4812 116.829L85.9262 118.121L87.831 116.829C88.1266 116.629 88.4222 116.428 88.7506 116.198L90.4584 115.05L89.2761 113.472C87.9952 111.807 86.7473 110.143 85.4664 108.478C82.6749 104.805 79.7848 101.017 76.9933 97.2575C69.1442 86.6392 69.9324 77.8576 79.5878 68.7604C82.8391 65.6897 86.6487 62.8773 90.327 60.151C91.6406 59.1752 92.9872 58.1708 94.3008 57.1664C104.679 49.2457 114.728 40.1198 118.177 27.177C120.476 18.5102 118.505 11.2209 112.298 5.45262L106.419 0L108.291 7.28929C111.247 18.6824 107.602 28.6119 97.1909 37.5944C95.089 39.4023 92.7901 41.1242 90.524 42.7887C88.882 43.994 87.207 45.228 85.5978 46.5194C83.3646 48.3274 81.0328 50.1354 78.7996 51.886C72.2313 57.0516 65.4331 62.3894 59.1932 68.0429C54.0042 72.7207 53.019 79.1777 56.2703 86.6679C60.8681 97.1714 69.7353 104.489 78.2741 111.578Z" fill="url(#paint1_linear_2_331)"/>
<path d="M51.3112 136.086H51.4754C51.7382 136.086 51.968 136.086 52.2308 136.115L49.9319 137.119C46.9761 138.41 40.7362 142.916 41.3274 147.881C41.7543 151.468 45.4654 154.051 52.3293 155.6C58.4707 156.978 66.0899 157.667 74.9571 157.667C100.048 157.667 127.832 152.099 128.095 152.042L129.901 151.669V150.062C129.901 149.344 129.901 148.742 123.957 142.055L123.037 141.022L121.559 141.338C121.329 141.395 98.8658 146.044 67.6335 146.044C65.3346 146.044 63.0357 146.015 60.7696 145.958C56.6315 145.872 53.84 145.04 52.8548 143.662C51.8038 142.112 53.019 139.874 53.019 139.874L55.2194 136.143C55.6463 136.143 56.0404 136.143 56.4673 136.143C94.4322 136.143 135.287 126.07 135.714 125.984L134.893 121.995C134.565 122.024 117.323 123.2 99.6211 124.348C101.099 123.028 102.577 121.794 104.022 120.618C107.306 117.891 110.393 115.309 112.856 112.295C117.75 106.24 117.618 99.6107 112.528 93.5841C110.656 91.3744 108.817 88.9638 106.485 85.7496C102.019 79.5508 102.216 75.8775 107.306 70.6831C110.492 67.4116 114.433 64.2548 119.425 60.9832C123.595 58.2282 128.062 55.7028 132.791 53.0052C134.926 51.7712 137.159 50.5085 139.458 49.1883L147.504 44.4819L137.882 45.4576C137.225 45.515 136.699 45.5437 136.239 45.5724C135.353 45.6298 134.565 45.6585 133.776 45.9742C131.051 47.036 128.259 48.0978 125.533 49.131C118.439 51.8286 111.083 54.5836 104.186 57.9699C99.03 60.5241 94.0052 64.6279 90.0971 69.5352C82.3465 79.2351 83.6601 89.7673 94.1366 101.706C101.296 109.885 101.395 111.205 95.4503 119.699C94.9248 120.445 95.0562 121.105 95.1547 121.794C95.2204 122.139 95.286 122.598 95.3846 123.315L95.5488 124.607C79.752 125.611 64.612 126.558 61.7548 126.558H61.6235C50.9171 126.329 47.6986 125.295 46.7791 124.808C47.2717 124.291 48.7824 123.057 53.216 121.22C56.5659 119.814 59.7843 118.81 59.9157 118.752L61.6235 118.207L61.2622 114.792H59.1275C58.405 114.792 50.326 116.629 43.7905 118.58C29.7015 122.799 27.6653 125.726 27.5339 128.05C27.304 132.24 34.2008 134.594 51.3112 136.086Z" fill="url(#paint2_linear_2_331)"/>
<path d="M67.9947 202.206C47.0747 202.206 36.3026 199.738 36.2041 199.709L35.1532 199.451C38.3716 199.537 41.82 199.594 45.4983 199.594C66.7139 199.594 95.713 197.959 131.674 194.716H131.74C151.839 192.334 160.674 186.451 162.184 181.773C162.874 179.707 162.217 177.784 160.411 176.493L156.7 173.795L156.568 177.899C155.846 179.018 149.803 181.83 131.642 184.872C119.129 186.967 103.989 188.632 94.8591 188.919C91.5421 189.034 88.0281 189.062 84.4155 189.062C72.0014 189.062 59.3574 188.46 47.1075 187.857C44.2174 187.714 41.2945 187.57 38.4045 187.455H38.3717C28.1251 187.14 27.107 185.418 27.107 185.418C27.0742 185.188 27.5996 183.954 30.8509 181.888C33.4783 180.223 36.6967 178.788 38.7001 178.1L46.7791 175.373L38.2074 174.168C36.7624 173.967 35.0218 173.852 33.117 173.852C24.7096 173.852 9.04414 176.033 2.67288 181.917C0.76807 183.667 -0.118653 185.619 0.0127128 187.685C0.0127128 187.742 0.0127128 187.886 0.0127128 187.972C-0.0201287 188.976 -0.0858119 191.042 2.14741 193.08C5.72714 196.294 14.3973 198.303 28.5192 199.107L34.0366 203.182C34.5292 203.555 46.7462 212.308 75.2856 212.308C84.1856 212.308 93.841 211.447 103.989 209.725C121.362 206.798 153.744 198.619 172.464 191.53L170.887 187.685C123.628 199.709 88.8491 202.206 67.9947 202.206Z" fill="url(#paint3_linear_2_331)"/>
<path d="M102.183 164.267C94.8591 165.616 87.8967 166.305 81.5254 166.305C65.236 166.305 56.9271 161.885 54.7596 160.537L53.2489 159.59L42.5754 167.682L44.513 169.232C44.9728 169.605 56.3688 178.501 83.1675 178.501C95.6473 178.501 109.572 176.55 124.482 172.704L132.857 170.552L102.708 164.181L102.183 164.267Z" fill="url(#paint4_linear_2_331)"/>
<defs>
<linearGradient id="paint0_linear_2_331" x1="87.1978" y1="0" x2="87.1978" y2="212.308" gradientUnits="userSpaceOnUse">
<stop stop-color="#FF9800"/>
</linearGradient>
<linearGradient id="paint1_linear_2_331" x1="87.1978" y1="0" x2="87.1978" y2="212.308" gradientUnits="userSpaceOnUse">
<stop stop-color="#FF9800"/>
</linearGradient>
<linearGradient id="paint2_linear_2_331" x1="87.1978" y1="0" x2="87.1978" y2="212.308" gradientUnits="userSpaceOnUse">
<stop stop-color="#FF9800"/>
</linearGradient>
<linearGradient id="paint3_linear_2_331" x1="87.1978" y1="0" x2="87.1978" y2="212.308" gradientUnits="userSpaceOnUse">
<stop stop-color="#FF9800"/>
</linearGradient>
<linearGradient id="paint4_linear_2_331" x1="87.1978" y1="0" x2="87.1978" y2="212.308" gradientUnits="userSpaceOnUse">
<stop stop-color="#FF9800"/>
</linearGradient>
</defs>
</svg>
